<?xml version="1.0" encoding="UTF-8" standalone="no"?>
<svg width="510px" height="510px" viewBox="0 0 510 510" version="1.1" xmlns="http://www.w3.org/2000/svg" xmlns:xlink="http://www.w3.org/1999/xlink">
    <!-- Generator: Sketch 3.7 (28169) - http://www.bohemiancoding.com/sketch -->
    <title>icon</title>
    <desc>Created with Sketch.</desc>
    <defs>
        <path d="M436.5,8.7 C409,0 383.4,0 332.2,0 L177.8,0 C126.6,0 101,0 73.5,8.7 C43.4,19.7 19.7,43.4 8.8,73.4 C0,101 0,126.6 0,177.8 L0,332.2 C0,383.4 0,409 8.7,436.6 C19.7,466.7 43.4,490.4 73.4,501.3 C101,510 126.6,510 177.8,510 L332.2,510 C383.4,510 409,510 436.6,501.3 C466.7,490.3 490.4,466.6 501.3,436.6 C510,409 510,383.4 510,332.2 L510,177.8 C510,126.6 510,101 501.3,73.4 C490.3,43.4 466.6,19.7 436.5,8.7 L436.5,8.7 L436.5,8.7 Z" id="path-1"></path>
    </defs>
    <g id="Page-1" stroke="none" stroke-width="1" fill="none" fill-rule="evenodd">
        <g id="icon">
            <mask id="mask-2" fill="white">
                <use xlink:href="#path-1"></use>
            </mask>
            <g id="Mask"></g>
            <g id="Group" mask="url(#mask-2)">
                <polygon id="Shape" fill="#FFFFFF" points="0 510 0 0 510 0 510 510"></polygon>
                <path d="M255.996094,474.638672 C133.868027,474.638672 34.8632812,375.633926 34.8632812,253.505859 C34.8632812,131.377793 133.868027,32.3730469 255.996094,32.3730469 C378.12416,32.3730469 477.128906,131.377793 477.128906,253.505859 C477.128906,375.633926 378.12416,474.638672 255.996094,474.638672 L255.996094,474.638672 Z" id="Shape" fill="#FF7264"></path>
                <g transform="translate(70.722656, 84.169922)" fill="#FFFFFF">
                    <path d="M7.47070313,147.695801 L12.0930762,147.695801 C16.2188965,147.695801 19.5637793,151.040186 19.5637793,155.166504 L19.5637793,186.458789 C19.5637793,190.585107 16.2188965,193.929492 12.0930762,193.929492 L7.47070313,193.929492 C3.34488281,193.929492 0,190.585107 0,186.458789 L0,155.166504 C0,151.040186 3.34488281,147.695801 7.47070313,147.695801 L7.47070313,147.695801 Z" id="Shape"></path>
                    <path d="M42.1780957,127.259941 L46.8009668,127.259941 C50.9267871,127.259941 54.2716699,130.604824 54.2716699,134.730645 L54.2716699,207.960469 C54.2716699,212.086289 50.9267871,215.431172 46.8009668,215.431172 L42.1780957,215.431172 C38.0522754,215.431172 34.7078906,212.086289 34.7078906,207.960469 L34.7078906,134.730645 C34.7078906,130.604824 38.0522754,127.259941 42.1780957,127.259941 L42.1780957,127.259941 Z" id="Shape"></path>
                    <path d="M76.9950586,148.161973 L81.6483105,148.161973 C85.7746289,148.161973 89.1190137,151.506855 89.1190137,155.632676 L89.1190137,187.591348 C89.1190137,191.717168 85.7746289,195.062051 81.6483105,195.062051 L76.9950586,195.062051 C72.8692383,195.062051 69.5243555,191.717168 69.5243555,187.591348 L69.5243555,155.632676 C69.5243555,151.506855 72.8692383,148.161973 76.9950586,148.161973 L76.9950586,148.161973 Z" id="Shape"></path>
                    <path d="M111.936035,127.376484 L116.573848,127.376484 C120.700166,127.376484 124.045049,130.721367 124.045049,134.847187 L124.045049,207.843926 C124.045049,211.969746 120.700166,215.314629 116.573848,215.314629 L111.936035,215.314629 C107.810215,215.314629 104.465332,211.969746 104.465332,207.843926 L104.465332,134.847187 C104.465332,130.721367 107.810215,127.376484 111.936035,127.376484 L111.936035,127.376484 Z" id="Shape"></path>
                    <path d="M147.017461,55.9605469 L151.670713,55.9605469 C155.796533,55.9605469 159.141416,59.3054297 159.141416,63.43125 L159.141416,279.792773 C159.141416,283.919092 155.796533,287.263477 151.670713,287.263477 L147.017461,287.263477 C142.891143,287.263477 139.546758,283.919092 139.546758,279.792773 L139.546758,63.43125 C139.546758,59.3054297 142.891143,55.9605469 147.017461,55.9605469 L147.017461,55.9605469 Z" id="Shape"></path>
                    <rect id="Rectangle-path" x="174.487734" y="0" width="19.5792188" height="342.158203" rx="15"></rect>
                    <path d="M216.883975,148.694883 L221.537227,148.694883 C225.663545,148.694883 229.00793,152.039766 229.00793,156.165586 L229.00793,187.591348 C229.00793,191.717168 225.663545,195.062051 221.537227,195.062051 L216.883975,195.062051 C212.758154,195.062051 209.413271,191.717168 209.413271,187.591348 L209.413271,156.165586 C209.413271,152.039766 212.758154,148.694883 216.883975,148.694883 L216.883975,148.694883 Z" id="Shape"></path>
                    <path d="M251.98084,91.6685156 L256.618652,91.6685156 C260.744473,91.6685156 264.089355,95.0133984 264.089355,99.1392187 L264.089355,243.551895 C264.089355,247.677715 260.744473,251.022598 256.618652,251.022598 L251.98084,251.022598 C247.854521,251.022598 244.509639,247.677715 244.509639,243.551895 L244.509639,99.1392187 C244.509639,95.0133984 247.854521,91.6685156 251.98084,91.6685156 L251.98084,91.6685156 Z" id="Shape"></path>
                    <path d="M286.906377,48.4988086 L291.559629,48.4988086 C295.685449,48.4988086 299.030332,51.8436914 299.030332,55.9695117 L299.030332,285.655283 C299.030332,289.781602 295.685449,293.125986 291.559629,293.125986 L286.906377,293.125986 C282.780059,293.125986 279.435674,289.781602 279.435674,285.655283 L279.435674,55.9695117 C279.435674,51.8436914 282.780059,48.4988086 286.906377,48.4988086 L286.906377,48.4988086 Z" id="Shape"></path>
                    <path d="M322.002744,114.585645 L326.641055,114.585645 C330.766875,114.585645 334.111758,117.930527 334.111758,122.056348 L334.111758,222.233496 C334.111758,226.359814 330.766875,229.704199 326.641055,229.704199 L322.002744,229.704199 C317.876924,229.704199 314.532041,226.359814 314.532041,222.233496 L314.532041,122.056348 C314.532041,117.930527 317.876924,114.585645 322.002744,114.585645 L322.002744,114.585645 Z" id="Shape"></path>
                    <path d="M356.959658,148.228711 L361.582031,148.228711 C365.707852,148.228711 369.052734,151.573096 369.052734,155.699414 L369.052734,186.991699 C369.052734,191.118018 365.707852,194.462402 361.582031,194.462402 L356.959658,194.462402 C352.833838,194.462402 349.488955,191.118018 349.488955,186.991699 L349.488955,155.699414 C349.488955,151.573096 352.833838,148.228711 356.959658,148.228711 L356.959658,148.228711 Z" id="Shape"></path>
                </g>
            </g>
        </g>
    </g>
</svg>